HIERARCHY
ROOT Hips
{
	OFFSET 0.00000 0.00000 0.00000
	CHANNELS 6 Xposition Yposition Zposition Zrotation Yrotation Xrotation 
	JOINT LHipJoint
	{
		OFFSET 0 0 0
		CHANNELS 3 Zrotation Yrotation Xrotation
		JOINT LeftHip
		{
			OFFSET 1.84395 -1.68683 0.74144
			CHANNELS 3 Zrotation Yrotation Xrotation
			JOINT LeftKnee
			{
				OFFSET 2.27037 -6.23779 0.00000
				CHANNELS 3 Zrotation Yrotation Xrotation
				JOINT LeftAnkle
				{
					OFFSET 2.56918 -7.05877 0.00000
					CHANNELS 3 Zrotation Yrotation Xrotation
					JOINT LeftToe
					{
						OFFSET 0.22276 -0.61202 1.71784
						CHANNELS 3 Zrotation Yrotation Xrotation
						End Site
						{
							OFFSET 0.00000 -0.00000 0.91613
						}
					}
				}
			}
		}
	}
	JOINT RHipJoint
	{
		OFFSET 0 0 0
		CHANNELS 3 Zrotation Yrotation Xrotation
		JOINT RightHip
		{
			OFFSET -1.76833 -1.68684 0.74144
			CHANNELS 3 Zrotation Yrotation Xrotation
			JOINT RightKnee
			{
				OFFSET -2.49360 -6.85110 0.00000
				CHANNELS 3 Zrotation Yrotation Xrotation
				JOINT RightAnkle
				{
					OFFSET -2.55538 -7.02085 0.00000
					CHANNELS 3 Zrotation Yrotation Xrotation
					JOINT RightToe
					{
						OFFSET -0.21516 -0.59115 1.68050
						CHANNELS 3 Zrotation Yrotation Xrotation
						End Site
						{
							OFFSET -0.00000 -0.00000 0.89604
						}
					}
				}
			}
		}
	}
	JOINT lowerback
	{
		OFFSET 0 0 0
		CHANNELS 3 Zrotation Yrotation Xrotation
		JOINT Chest
		{
			OFFSET 0.06382 1.72312 -0.19613
			CHANNELS 3 Zrotation Yrotation Xrotation
			JOINT Chest2
			{
				OFFSET -0.00055 1.73507 0.23859
				CHANNELS 3 Zrotation Yrotation Xrotation
				JOINT lowerneck
				{
					OFFSET 0 0 0
					CHANNELS 3 Zrotation Yrotation Xrotation
					JOINT Neck
					{
						OFFSET 0.03638 1.65562 0.09633
						CHANNELS 3 Zrotation Yrotation Xrotation
						JOINT Head
						{
							OFFSET 0.06388 1.62807 -0.32386
							CHANNELS 3 Zrotation Yrotation Xrotation
							End Site
							{
								OFFSET 0.00995 1.67644 -0.12021
							}
						}
					}
				}
				JOINT LeftCollar
				{
					OFFSET 0 0 0
					CHANNELS 3 Zrotation Yrotation Xrotation
					JOINT LeftShoulder
					{
						OFFSET 3.09648 1.42991 0.28122
CHANNELS 3 Zrotation Xrotation Yrotation
						JOINT LeftElbow
						{
OFFSET 0 -5.118780 -0.000000
CHANNELS 3 Zrotation Xrotation Yrotation
							JOINT LeftWrist
							{
OFFSET 0 -3.599710 0.000000
CHANNELS 3 Zrotation Xrotation Yrotation
								JOINT lhand
								{
									OFFSET 0 0 0
CHANNELS 3 Zrotation Xrotation Yrotation
									JOINT LFingers
									{
OFFSET 0 -0.628770 0.000000
CHANNELS 3 Zrotation Xrotation Yrotation
										End Site
										{
OFFSET 0 -0.506930 0.000000
										}
									}
								}
								JOINT LThumb
								{
OFFSET 0 0.000000 0.000000
CHANNELS 3 Zrotation Xrotation Yrotation
									End Site
									{
OFFSET 0 -0.514670 0.514670
									}
								}
							}
						}
					}
				}
				JOINT RightCollar
				{
					OFFSET 0 0 0
					CHANNELS 3 Zrotation Yrotation Xrotation
					JOINT RightShoulder
					{
						OFFSET -3.33565 1.14597 0.05047
CHANNELS 3 Zrotation Xrotation Yrotation
						JOINT RightElbow
						{
OFFSET 0 -5.490200 0.000000
CHANNELS 3 Zrotation Xrotation Yrotation
							JOINT RightWrist
							{
OFFSET 0 -3.206590 -0.000000
CHANNELS 3 Zrotation Xrotation Yrotation
								JOINT rhand
								{
									OFFSET 0 0 0
CHANNELS 3 Zrotation Xrotation Yrotation
									JOINT RFingers
									{
OFFSET 0 -0.691880 0.000000
CHANNELS 3 Zrotation Xrotation Yrotation
										End Site
										{
OFFSET 0 -0.557810 0.000000
										}
									}
								}
								JOINT RThumb
								{
OFFSET 0 0.000000 0.000000
CHANNELS 3 Zrotation Xrotation Yrotation
									End Site
									{
OFFSET 0 -0.566330 0.566330
									}
								}
							}
						}
					}
				}
			}
		}
	}
}
MOTION
Frames: 6
Frame Time: .0083333
0.6471 17.5300 8.8491 -10.0050 -6.9308 8.5873 0.0000 0.0000 0.0000 -14.7904 -33.4325 18.8299 0.0314 -1.1437 -3.1444 -4.8463 40.1706 -37.9663 0.3203 3.6379 10.0600 0.0000 0.0000 0.0000 27.9360 24.8816 3.3113 -0.0301 -1.1204 3.0803 0.4426 -14.6792 -14.8951 -0.0181 0.8697 -2.3903 6.9265 1.1949 0.8471 1.3135 2.0743 -7.8732 -2.6438 0.5762 -8.6142 1.0842 0.3600 -14.1743 11.9336 -3.9473 32.4692 3.9640 -0.0230 13.6612 0.0000 0.0000 0.0000 48.8803 -35.0007 -75.04 92.3736 -59.9787 62.0554 -17.5667 -64.1277 14.0321 0.0 0.0 0.0 -7.1250 0.0 0.0 -29.3398 16.0458 -23.4305 0.0000 0.0000 0.0000 -29.3795 -52.9741 93.8476 -141.3094 -47.2747 -102.5288 6.2238 -47.962 28.5542 0.0 0.0 0.0 7.1250 0.0 -0.0 38.2577 54.2002 -9.735
0.6438 17.5282 8.8509 -10.0322 -6.3010 8.4496 0.0000 0.0000 0.0000 -14.9357 -33.9614 19.1860 0.0323 -1.1604 -3.1903 -4.9083 40.2439 -37.8285 0.3001 3.5222 9.7362 0.0000 0.0000 0.0000 28.0555 24.7370 3.4624 -0.0305 -1.1270 3.0983 0.4587 -14.9998 -15.2919 -0.0101 0.6494 -1.7846 6.6819 1.0746 0.9018 1.3705 1.9061 -7.8110 -2.4358 0.5157 -8.5987 0.7817 0.2630 -14.2368 12.0937 -4.0234 32.2028 4.0567 -0.0795 13.5712 0.0000 0.0000 0.0000 48.7389 -35.2916 -74.9466 91.9646 -59.9854 61.7013 -17.4435 -63.9602 14.0419 0.0 0.0 0.0 -7.1250 0.0 0.0 -29.2690 16.046 -23.3534 0.0000 0.0000 0.0000 -33.6576 -50.9257 91.158 -141.7631 -46.9899 -102.8614 5.3545 -45.0762 28.3488 0.0 0.0 0.0 7.1250 0.0 -0.0 37.3079 54.198 -9.4334
0.6424 17.5271 8.8522 -10.1197 -5.7482 8.3747 0.0000 0.0000 0.0000 -14.9814 -34.4863 19.4688 0.0331 -1.1741 -3.2279 -5.0054 40.3926 -37.7078 0.2841 3.4278 9.4721 0.0000 0.0000 0.0000 28.2061 24.6476 3.5343 -0.0314 -1.1437 3.1442 0.4799 -15.3195 -15.6061 -0.0052 0.4636 -1.2740 6.5518 0.9874 0.9868 1.4633 1.7959 -7.7911 -2.2585 0.4741 -8.6416 0.4173 0.1942 -14.4316 12.1179 -4.0160 32.0869 4.1288 -0.1149 13.5648 0.0000 -0.0000 0.0000 48.5573 -35.3659 -74.7885 91.8629 -59.9869 61.6133 -17.2481 -63.8009 14.1413 0.0 0.0 0.0 -7.1250 0.0 0.0 -29.1404 15.9696 -23.2718 0.0000 -0.0000 0.0000 -37.3789 -48.7796 87.7045 -140.9319 -47.508 -102.251 4.8045 -44.525 28.2944 0.0 0.0 0.0 7.1250 0.0 -0.0 36.7661 54.2571 -9.3214
0.6426 17.5281 8.8460 -10.0242 -5.3865 8.2881 0.0000 0.0000 0.0000 -15.1896 -34.9182 19.6418 0.0324 -1.1624 -3.1957 -5.0485 40.4869 -37.7348 0.2926 3.4784 9.6135 0.0000 0.0000 0.0000 28.0923 24.6264 3.4996 -0.0342 -1.1930 3.2799 0.4985 -15.5803 -15.8459 -0.0028 0.3421 -0.9399 6.2760 0.9043 1.2030 1.5284 1.6920 -7.7815 -2.0325 0.4420 -8.7726 0.4893 0.2163 -14.5010 11.6718 -3.8245 31.8670 3.9494 -0.0837 13.4502 0.0000 0.0000 0.0000 48.4349 -35.103 -74.4527 92.0997 -59.9833 61.8183 -17.1328 -63.8561 14.296 0.0 0.0 0.0 -7.1250 0.0 0.0 -29.0466 15.8373 -23.2694 0.0000 0.0000 0.0000 -40.4556 -46.9327 84.1895 -139.2036 -48.5347 -100.9661 3.0274 -43.2457 28.6026 0.0 0.0 0.0 7.1250 0.0 -0.0 35.3854 54.8456 -9.4338
0.6441 17.5302 8.8323 -9.7430 -5.2925 8.1334 0.0000 0.0000 0.0000 -15.5779 -35.1439 19.7477 0.0309 -1.1348 -3.1199 -5.0868 40.7259 -38.1972 0.2427 3.1703 8.7532 0.0000 0.0000 0.0000 27.7651 24.7513 3.4972 -0.0381 -1.2606 3.4662 0.5134 -15.7767 -16.0175 -0.0012 0.2266 -0.6226 5.9253 0.7927 1.4866 1.5414 1.5420 -7.7169 -1.8163 0.3919 -8.8844 0.8567 0.4440 -14.5748 11.1143 -3.3927 31.7410 3.7162 0.0774 13.3566 0.0000 -0.0000 0.0000 48.5013 -34.5038 -73.8759 92.4363 -59.9776 62.1097 -17.4062 -64.1622 14.2641 0.0 0.0 0.0 -7.1250 0.0 0.0 -29.2058 15.8467 -23.4354 0.0000 -0.0000 0.0000 -42.3778 -46.0927 81.2318 -136.1704 -50.1821 -98.664 3.5207 -43.7614 28.7296 0.0 0.0 0.0 7.1250 0.0 -0.0 35.9408 54.8552 -9.6218
0.6481 17.5334 8.8349 -9.7276 -5.2629 8.0361 0.0000 0.0000 0.0000 -15.5588 -34.9762 19.6915 0.0306 -1.1295 -3.1052 -5.1571 40.8683 -38.2166 0.1678 2.6392 7.2758 0.0000 0.0000 0.0000 27.7668 24.6928 3.5873 -0.0380 -1.2584 3.4602 0.5208 -15.8127 -15.9731 -0.0013 0.2298 -0.6313 6.0498 0.6413 1.4166 1.5852 1.3386 -7.6259 -1.8202 0.2898 -8.7582 1.3823 0.7581 -14.5753 10.5685 -2.8990 31.7397 3.4771 0.2873 13.3032 -0.0000 -0.0000 0.0000 48.7108 -33.6382 -73.343 92.7315 -59.9718 62.3653 -17.8814 -64.5963 14.1494 0.0 0.0 0.0 -7.1250 0.0 0.0 -29.4928 15.9155 -23.6972 -0.0000 -0.0000 0.0000 -43.0241 -46.4089 79.337 -132.3477 -52.0036 -95.6886 1.8111 -44.4433 29.2206 0.0 0.0 0.0 7.1250 0.0 -0.0 34.7568 55.5913 -9.8955
